<svg xmlns="http://www.w3.org/2000/svg" xmlns:v="https://svgstorm.com"
viewBox = "0 0 500 500"
width="500"
height="500">
<g fill="None" fill-opacity="0.0" stroke="#FEFEFE" stroke-opacity="1.00" stroke-width="0.3"><path d="
M 0.00 500.00 
L 500.00 500.00
L 500.00 0.00
L 0.00 0.00
L 0.00 500.00
M 243.00 150.00 
C 242.68 156.71 243.39 165.63 242.00 174.00 C 240.62 182.37 240.66 193.28 238.02 201.02 C 235.38 208.77 235.83 218.54 230.75 224.75 C 225.66 230.95 218.45 233.74 212.77 238.77 C 207.09 243.80 201.33 247.73 195.75 252.75 C 190.18 257.78 184.21 261.58 178.77 266.77 C 173.33 271.96 167.24 276.72 161.77 281.77 C 156.30 286.82 151.24 291.82 145.75 296.75 C 140.26 301.69 135.10 306.55 129.75 311.75 C 124.41 316.95 119.37 321.49 114.25 327.25 C 109.13 333.00 103.08 336.68 98.25 343.25 C 93.42 349.82 85.50 352.78 80.30 345.70 C 75.11 338.61 68.13 337.61 63.30 331.70 C 58.48 325.78 47.90 322.62 51.00 316.00
C 48.79 313.67 46.12 316.53 44.00 315.00
C 51.36 300.25 66.98 289.43 78.25 276.25 C 89.52 263.06 101.15 250.75 112.75 237.75 C 124.35 224.75 133.58 210.72 146.25 198.25 C 158.91 185.78 164.75 166.24 182.67 161.67 C 200.59 157.11 224.22 149.78 243.00 150.00
M 47.00 153.00 
C 54.05 152.69 64.61 159.13 72.22 159.78 C 79.83 160.43 92.82 161.46 99.22 164.78 C 105.62 168.09 111.46 175.12 116.25 179.75 C 121.04 184.38 131.36 190.42 129.07 197.07 C 126.79 203.72 119.72 209.15 115.70 215.70 C 111.67 222.25 105.73 225.87 101.23 233.23 C 96.73 240.59 89.22 243.36 82.92 237.08 C 76.62 230.80 72.50 227.43 65.75 222.25 C 59.00 217.07 55.89 209.54 54.07 201.93 C 52.26 194.31 48.77 182.51 48.07 175.93 C 47.38 169.35 38.81 153.36 47.00 153.00
M 301.00 205.00 
C 301.80 205.67 302.33 206.33 303.00 207.00
C 310.89 214.96 307.33 226.39 309.00 237.00
C 314.93 236.66 321.06 236.88 327.00 237.00
C 329.68 237.05 331.96 237.52 334.00 238.00
C 335.66 238.17 336.52 238.25 338.00 239.00
C 345.88 242.97 345.09 247.99 346.00 256.00 C 346.91 264.01 344.84 272.34 335.00 271.00 C 325.16 269.66 318.54 272.01 309.00 271.00
C 306.40 279.45 313.87 298.96 305.75 304.75 C 297.63 310.54 282.68 305.20 278.00 298.00
C 277.80 297.60 278.00 297.00 278.00 297.00
C 273.82 290.36 276.00 278.77 276.00 271.00
C 263.69 270.06 245.91 275.34 240.00 261.00
C 238.31 256.89 236.26 242.24 241.25 239.25 C 246.24 236.26 259.69 238.00 266.00 238.00
C 268.61 237.75 272.68 236.11 276.00 237.00
C 278.54 233.37 274.87 221.20 276.00 217.00 C 277.13 212.80 275.61 203.06 282.03 203.03 C 288.44 203.00 296.44 201.21 301.00 205.00
M 421.00 204.00 
C 433.17 209.63 427.73 226.64 429.00 237.00
C 434.90 236.66 441.09 236.77 447.00 237.00
C 452.60 237.21 455.79 237.93 460.00 241.00
C 467.07 246.15 465.14 250.12 466.00 259.00 C 466.86 267.88 463.04 272.01 454.00 271.00 C 444.96 269.99 437.87 271.76 429.00 271.00
C 426.21 279.31 434.06 299.76 425.92 304.92 C 417.77 310.07 401.41 305.70 398.00 297.00
C 396.08 294.63 397.00 289.90 397.00 287.00
C 396.79 284.81 396.79 282.13 397.00 280.00
C 397.00 277.00 397.06 274.00 397.00 271.00
C 384.35 270.14 370.03 275.01 362.00 263.00
C 360.68 261.03 360.62 260.21 360.00 258.00
C 358.73 253.49 358.52 247.45 360.00 243.00
C 362.77 234.69 378.01 238.00 386.00 238.00
C 388.61 237.75 392.68 236.11 396.00 237.00
C 396.66 228.83 394.67 219.34 397.00 212.00
C 397.25 207.43 399.23 201.17 405.00 203.00 C 410.77 204.83 416.56 200.03 421.00 204.00
M 202.00 265.00 
C 217.36 281.88 231.95 299.92 246.00 317.00
C 236.82 327.51 227.32 337.65 218.00 348.00
C 197.76 335.74 179.61 318.52 161.00 303.00
C 172.52 288.67 184.38 273.09 202.00 265.00 Z"/>
</g>
<g fill="None" fill-opacity="0.0" stroke="#6A66DB" stroke-opacity="1.00" stroke-width="0.3"><path d="
M 243.00 150.00 
C 224.22 149.78 200.59 157.11 182.67 161.67 C 164.75 166.24 158.91 185.78 146.25 198.25 C 133.58 210.72 124.35 224.75 112.75 237.75 C 101.15 250.75 89.52 263.06 78.25 276.25 C 66.98 289.43 51.36 300.25 44.00 315.00
C 46.12 316.53 48.79 313.67 51.00 316.00
C 47.90 322.62 58.48 325.78 63.30 331.70 C 68.13 337.61 75.11 338.61 80.30 345.70 C 85.50 352.78 93.42 349.82 98.25 343.25 C 103.08 336.68 109.13 333.00 114.25 327.25 C 119.37 321.49 124.41 316.95 129.75 311.75 C 135.10 306.55 140.26 301.69 145.75 296.75 C 151.24 291.82 156.30 286.82 161.77 281.77 C 167.24 276.72 173.33 271.96 178.77 266.77 C 184.21 261.58 190.18 257.78 195.75 252.75 C 201.33 247.73 207.09 243.80 212.77 238.77 C 218.45 233.74 225.66 230.95 230.75 224.75 C 235.83 218.54 235.38 208.77 238.02 201.02 C 240.66 193.28 240.62 182.37 242.00 174.00 C 243.39 165.63 242.68 156.71 243.00 150.00
M 170.00 179.00 
C 167.57 183.95 163.61 188.89 160.00 193.00
C 161.75 187.68 165.62 182.60 170.00 179.00
M 195.00 185.00 
C 210.00 183.37 216.86 208.63 200.32 211.32 C 183.78 214.02 183.23 192.10 195.00 185.00
M 160.00 193.00 
C 130.48 236.08 93.13 276.31 53.00 311.00
C 89.45 272.42 128.16 234.32 160.00 193.00
M 155.00 194.00 
C 135.33 219.21 114.42 245.34 91.00 267.00
C 113.11 243.29 133.96 217.18 155.00 194.00
M 207.00 240.00 
C 205.56 242.95 201.87 246.09 199.00 247.00
C 201.21 244.04 204.02 241.10 207.00 239.00
C 212.95 233.91 216.08 229.40 222.75 224.75 C 229.43 220.10 229.49 209.92 234.00 205.00
C 235.46 222.64 219.19 231.20 207.00 240.00
M 127.00 310.00 
C 123.65 313.92 120.53 319.05 116.00 321.00
C 122.56 312.30 130.83 304.31 139.00 297.00
C 140.74 294.96 142.23 292.67 145.00 292.00
C 140.14 297.89 133.14 304.55 127.00 310.00 Z"/>
</g>
<g fill="None" fill-opacity="0.0" stroke="#6A66DB" stroke-opacity="1.00" stroke-width="0.3"><path d="
M 47.00 153.00 
C 38.81 153.36 47.38 169.35 48.07 175.93 C 48.77 182.51 52.26 194.31 54.07 201.93 C 55.89 209.54 59.00 217.07 65.75 222.25 C 72.50 227.43 76.62 230.80 82.92 237.08 C 89.22 243.36 96.73 240.59 101.23 233.23 C 105.73 225.87 111.67 222.25 115.70 215.70 C 119.72 209.15 126.79 203.72 129.07 197.07 C 131.36 190.42 121.04 184.38 116.25 179.75 C 111.46 175.12 105.62 168.09 99.22 164.78 C 92.82 161.46 79.83 160.43 72.22 159.78 C 64.61 159.13 54.05 152.69 47.00 153.00
M 55.00 184.00 
C 51.81 176.72 51.89 167.71 49.00 160.00
C 54.37 166.19 53.69 175.96 55.00 184.00
M 103.00 172.00 
C 99.05 170.10 95.34 167.75 91.00 167.00
C 94.81 164.27 101.57 168.20 103.00 172.00 Z"/>
</g>
<g fill="None" fill-opacity="0.0" stroke="#CBCAF2" stroke-opacity="1.00" stroke-width="0.3"><path d="
M 55.00 184.00 
C 53.69 175.96 54.37 166.19 49.00 160.00
C 51.89 167.71 51.81 176.72 55.00 184.00 Z"/>
</g>
<g fill="None" fill-opacity="0.0" stroke="#E0E0F8" stroke-opacity="1.00" stroke-width="0.3"><path d="
M 103.00 172.00 
C 101.57 168.20 94.81 164.27 91.00 167.00
C 95.34 167.75 99.05 170.10 103.00 172.00 Z"/>
</g>
<g fill="None" fill-opacity="0.0" stroke="#9D9CE8" stroke-opacity="1.00" stroke-width="0.3"><path d="
M 170.00 179.00 
C 165.62 182.60 161.75 187.68 160.00 193.00
C 163.61 188.89 167.57 183.95 170.00 179.00 Z"/>
</g>
<g fill="None" fill-opacity="0.0" stroke="#FBFBFE" stroke-opacity="1.00" stroke-width="0.3"><path d="
M 195.00 185.00 
C 183.23 192.10 183.78 214.02 200.32 211.32 C 216.86 208.63 210.00 183.37 195.00 185.00 Z"/>
</g>
<g fill="None" fill-opacity="0.0" stroke="#E6E6F9" stroke-opacity="1.00" stroke-width="0.3"><path d="
M 160.00 193.00 
C 128.16 234.32 89.45 272.42 53.00 311.00
C 93.13 276.31 130.48 236.08 160.00 193.00 Z"/>
</g>
<g fill="None" fill-opacity="0.0" stroke="#B8B8EF" stroke-opacity="1.00" stroke-width="0.3"><path d="
M 155.00 194.00 
C 133.96 217.18 113.11 243.29 91.00 267.00
C 114.42 245.34 135.33 219.21 155.00 194.00 Z"/>
</g>
<g fill="None" fill-opacity="0.0" stroke="#6965DA" stroke-opacity="1.00" stroke-width="0.3"><path d="
M 276.00 237.00 
C 274.57 239.05 268.43 238.00 266.00 238.00
C 259.69 238.00 246.24 236.26 241.25 239.25 C 236.26 242.24 238.31 256.89 240.00 261.00
C 240.43 261.73 243.17 263.78 244.00 264.00
C 247.63 264.77 255.49 261.40 260.00 263.00 C 264.51 264.60 272.63 260.52 276.00 264.00
C 276.25 264.26 276.00 265.00 276.00 265.00
C 276.00 267.00 276.00 269.00 276.00 271.00
C 276.00 278.77 273.82 290.36 278.00 297.00
C 283.94 298.62 292.31 298.44 298.00 299.00
C 299.50 298.82 299.05 298.92 300.00 298.00
C 300.15 297.85 302.01 295.98 302.00 296.00
C 302.68 294.51 302.88 288.24 303.00 287.00
C 303.00 283.33 303.00 279.67 303.00 276.00
C 302.54 271.26 299.81 264.66 305.00 264.00
C 311.44 263.21 318.50 264.00 325.00 264.00
C 327.46 263.76 330.82 262.71 334.00 263.00
C 336.54 263.27 339.13 262.37 340.00 260.00
C 340.19 259.59 340.00 259.00 340.00 259.00
C 340.00 258.50 340.00 258.00 340.00 258.00
C 337.33 254.39 340.05 248.43 340.00 245.00
C 339.51 242.89 340.07 240.51 338.00 239.00
C 336.52 238.25 335.66 238.17 334.00 238.00
C 331.72 237.77 329.29 238.00 327.00 238.00
C 319.67 238.00 312.33 238.00 305.00 238.00
C 304.50 238.00 304.00 238.00 304.00 238.00
C 303.50 238.00 303.00 238.00 303.00 238.00
C 300.81 235.88 302.00 229.11 302.00 226.00
C 302.00 220.67 304.08 209.40 301.00 205.00
C 296.44 201.21 288.44 203.00 282.03 203.03 C 275.61 203.06 277.13 212.80 276.00 217.00 C 274.87 221.20 278.54 233.37 276.00 237.00 Z"/>
</g>
<g fill="None" fill-opacity="0.0" stroke="#6965DA" stroke-opacity="1.00" stroke-width="0.3"><path d="
M 397.00 212.00 
C 396.28 225.36 402.43 238.00 386.00 238.00
C 378.01 238.00 362.77 234.69 360.00 243.00
C 359.21 247.12 359.37 253.85 360.00 258.00
C 360.62 260.21 360.68 261.03 362.00 263.00
C 362.42 263.19 363.50 263.00 364.00 263.00
C 368.73 263.00 375.47 262.34 380.00 263.00 C 384.53 263.66 392.90 260.90 396.00 264.00
C 397.61 265.61 396.95 268.68 397.00 271.00
C 397.06 274.00 397.00 277.00 397.00 280.00
C 397.00 282.33 397.00 284.67 397.00 287.00
C 397.00 289.90 396.08 294.63 398.00 297.00
C 398.20 297.24 399.00 297.00 399.00 297.00
C 406.81 299.77 421.64 300.53 423.00 291.00
C 423.00 282.12 422.20 272.83 423.00 264.00
C 425.29 261.62 428.87 263.79 431.00 264.00
C 435.67 264.00 440.33 264.00 445.00 264.00
C 447.47 263.76 450.82 262.71 454.00 263.00
C 456.92 263.04 459.02 262.11 461.00 260.00
C 461.24 259.70 461.00 259.00 461.00 259.00
C 458.23 255.26 461.00 248.64 461.00 245.00
C 460.83 243.39 460.83 242.41 460.00 241.00
C 455.79 237.93 452.60 237.21 447.00 237.00
C 440.39 237.39 432.32 238.00 425.00 238.00
C 424.50 238.00 424.00 238.00 424.00 238.00
C 421.71 235.78 423.00 228.27 423.00 225.00
C 422.49 219.78 423.20 211.62 422.00 206.00
C 421.74 205.59 421.29 204.26 421.00 204.00
C 416.56 200.03 410.77 204.83 405.00 203.00 C 399.23 201.17 397.25 207.43 397.00 212.00 Z"/>
</g>
<g fill="None" fill-opacity="0.0" stroke="#A5A5A6" stroke-opacity="1.00" stroke-width="0.3"><path d="
M 422.00 206.00 
C 422.56 206.87 422.84 206.68 423.00 208.00
C 426.39 216.32 423.14 228.68 424.00 238.00
C 424.00 238.00 424.50 238.00 425.00 238.00
C 426.17 236.80 427.26 237.10 429.00 237.00
C 427.73 226.64 433.17 209.63 421.00 204.00
C 421.29 204.26 421.74 205.59 422.00 206.00 Z"/>
</g>
<g fill="None" fill-opacity="0.0" stroke="#E1E1F8" stroke-opacity="1.00" stroke-width="0.3"><path d="
M 207.00 239.00 
C 206.77 239.16 207.00 240.00 207.00 240.00
C 219.19 231.20 235.46 222.64 234.00 205.00
C 229.49 209.92 229.43 220.10 222.75 224.75 C 216.08 229.40 212.95 233.91 207.00 239.00 Z"/>
</g>
<g fill="None" fill-opacity="0.0" stroke="#171729" stroke-opacity="1.00" stroke-width="0.3"><path d="
M 302.00 226.00 
C 302.00 225.96 303.00 226.00 303.00 226.00
C 303.00 220.58 304.65 212.11 303.00 207.00
C 302.33 206.33 301.80 205.67 301.00 205.00
C 304.08 209.40 302.00 220.67 302.00 226.00 Z"/>
</g>
<g fill="None" fill-opacity="0.0" stroke="#34336C" stroke-opacity="1.00" stroke-width="0.3"><path d="
M 423.00 225.00 
C 423.00 219.48 423.67 213.48 423.00 208.00
C 422.84 206.68 422.56 206.87 422.00 206.00
C 423.20 211.62 422.49 219.78 423.00 225.00 Z"/>
</g>
<g fill="None" fill-opacity="0.0" stroke="#A5A5A5" stroke-opacity="1.00" stroke-width="0.3"><path d="
M 303.00 226.00 
C 303.00 226.50 303.00 227.00 303.00 227.00
C 305.02 229.73 303.68 234.50 304.00 238.00
C 304.00 238.00 304.50 238.00 305.00 238.00
C 306.17 236.80 307.26 237.10 309.00 237.00
C 307.33 226.39 310.89 214.96 303.00 207.00
C 304.65 212.11 303.00 220.58 303.00 226.00 Z"/>
</g>
<g fill="None" fill-opacity="0.0" stroke="#2F2F32" stroke-opacity="1.00" stroke-width="0.3"><path d="
M 423.00 225.00 
C 423.00 228.27 421.71 235.78 424.00 238.00
C 423.14 228.68 426.39 216.32 423.00 208.00
C 423.67 213.48 423.00 219.48 423.00 225.00 Z"/>
</g>
<g fill="None" fill-opacity="0.0" stroke="#A9A8C6" stroke-opacity="1.00" stroke-width="0.3"><path d="
M 386.00 238.00 
C 402.43 238.00 396.28 225.36 397.00 212.00
C 394.67 219.34 396.66 228.83 396.00 237.00
C 392.68 236.11 388.61 237.75 386.00 238.00 Z"/>
</g>
<g fill="None" fill-opacity="0.0" stroke="#3A387A" stroke-opacity="1.00" stroke-width="0.3"><path d="
M 303.00 238.00 
C 302.67 234.40 303.00 230.62 303.00 227.00
C 303.00 227.00 303.00 226.50 303.00 226.00
C 303.00 226.00 302.00 225.96 302.00 226.00
C 302.00 229.11 300.81 235.88 303.00 238.00 Z"/>
</g>
<g fill="None" fill-opacity="0.0" stroke="#565658" stroke-opacity="1.00" stroke-width="0.3"><path d="
M 303.00 238.00 
C 303.00 238.00 303.50 238.00 304.00 238.00
C 303.68 234.50 305.02 229.73 303.00 227.00
C 303.00 230.62 302.67 234.40 303.00 238.00 Z"/>
</g>
<g fill="None" fill-opacity="0.0" stroke="#ABAAC7" stroke-opacity="1.00" stroke-width="0.3"><path d="
M 266.00 238.00 
C 268.43 238.00 274.57 239.05 276.00 237.00
C 272.68 236.11 268.61 237.75 266.00 238.00 Z"/>
</g>
<g fill="None" fill-opacity="0.0" stroke="#7473AA" stroke-opacity="1.00" stroke-width="0.3"><path d="
M 305.00 238.00 
C 312.33 238.00 319.67 238.00 327.00 238.00
C 326.93 237.99 327.00 237.00 327.00 237.00
C 321.06 236.88 314.93 236.66 309.00 237.00
C 307.26 237.10 306.17 236.80 305.00 238.00 Z"/>
</g>
<g fill="None" fill-opacity="0.0" stroke="#9A98CB" stroke-opacity="1.00" stroke-width="0.3"><path d="
M 327.00 238.00 
C 329.29 238.00 331.72 237.77 334.00 238.00
C 331.96 237.52 329.68 237.05 327.00 237.00
C 327.00 237.00 326.93 237.99 327.00 238.00 Z"/>
</g>
<g fill="None" fill-opacity="0.0" stroke="#7573AA" stroke-opacity="1.00" stroke-width="0.3"><path d="
M 425.00 238.00 
C 432.32 238.00 440.39 237.39 447.00 237.00
C 441.09 236.77 434.90 236.66 429.00 237.00
C 427.26 237.10 426.17 236.80 425.00 238.00 Z"/>
</g>
<g fill="None" fill-opacity="0.0" stroke="#9493E5" stroke-opacity="1.00" stroke-width="0.3"><path d="
M 207.00 240.00 
C 207.00 240.00 206.77 239.16 207.00 239.00
C 204.02 241.10 201.21 244.04 199.00 247.00
C 201.87 246.09 205.56 242.95 207.00 240.00 Z"/>
</g>
<g fill="None" fill-opacity="0.0" stroke="#A4A4A4" stroke-opacity="1.00" stroke-width="0.3"><path d="
M 340.00 245.00 
C 340.81 248.50 342.46 255.67 340.00 259.00
C 340.00 259.00 340.19 259.59 340.00 260.00
C 338.45 263.28 337.75 265.24 341.00 268.00
C 337.39 268.47 337.70 262.85 334.00 264.00
C 333.84 264.23 332.50 264.00 332.00 264.00
C 329.07 265.25 321.49 265.92 318.00 265.00 C 314.51 264.08 305.46 267.24 303.00 265.00
C 302.48 266.06 303.00 268.79 303.00 270.00
C 303.64 276.02 303.72 283.04 303.00 289.00
C 303.13 291.09 301.90 294.84 302.00 296.00
C 302.24 298.91 304.48 300.70 306.00 303.00
C 302.58 303.37 302.58 298.91 300.00 298.00
C 299.05 298.92 299.50 298.82 298.00 299.00
C 292.79 299.64 282.57 300.40 278.00 298.00
C 282.68 305.20 297.63 310.54 305.75 304.75 C 313.87 298.96 306.40 279.45 309.00 271.00
C 318.54 272.01 325.16 269.66 335.00 271.00 C 344.84 272.34 346.91 264.01 346.00 256.00 C 345.09 247.99 345.88 242.97 338.00 239.00
C 340.07 240.51 339.51 242.89 340.00 245.00 Z"/>
</g>
<g fill="None" fill-opacity="0.0" stroke="#A5A5A5" stroke-opacity="1.00" stroke-width="0.3"><path d="
M 461.00 245.00 
C 461.48 249.55 461.00 254.42 461.00 259.00
C 461.00 259.00 461.24 259.70 461.00 260.00
C 458.49 263.14 457.78 264.79 461.00 268.00
C 457.55 268.39 458.01 262.59 454.00 264.00
C 453.84 264.23 452.50 264.00 452.00 264.00
C 445.33 266.84 431.70 265.70 424.00 265.00
C 423.99 274.17 424.83 284.65 423.00 293.00
C 423.00 293.99 422.95 295.01 423.00 296.00
C 423.15 299.14 425.36 300.13 426.00 303.00
C 423.63 302.03 422.63 299.42 421.00 298.00
C 419.68 298.97 418.57 298.84 417.00 299.00
C 414.37 299.62 412.43 299.23 410.00 299.00
C 406.83 299.00 400.55 300.40 399.00 297.00
C 399.00 297.00 398.20 297.24 398.00 297.00
C 401.41 305.70 417.77 310.07 425.92 304.92 C 434.06 299.76 426.21 279.31 429.00 271.00
C 437.87 271.76 444.96 269.99 454.00 271.00 C 463.04 272.01 466.86 267.88 466.00 259.00 C 465.14 250.12 467.07 246.15 460.00 241.00
C 460.83 242.41 460.83 243.39 461.00 245.00 Z"/>
</g>
<g fill="None" fill-opacity="0.0" stroke="#A6A5C5" stroke-opacity="1.00" stroke-width="0.3"><path d="
M 360.00 258.00 
C 359.37 253.85 359.21 247.12 360.00 243.00
C 358.52 247.45 358.73 253.49 360.00 258.00 Z"/>
</g>
<g fill="None" fill-opacity="0.0" stroke="#444290" stroke-opacity="1.00" stroke-width="0.3"><path d="
M 340.00 258.00 
C 340.00 253.67 340.00 249.33 340.00 245.00
C 340.05 248.43 337.33 254.39 340.00 258.00 Z"/>
</g>
<g fill="None" fill-opacity="0.0" stroke="#616162" stroke-opacity="1.00" stroke-width="0.3"><path d="
M 340.00 258.00 
C 340.00 258.00 340.00 258.50 340.00 259.00
C 342.46 255.67 340.81 248.50 340.00 245.00
C 340.00 249.33 340.00 253.67 340.00 258.00 Z"/>
</g>
<g fill="None" fill-opacity="0.0" stroke="#2A293A" stroke-opacity="1.00" stroke-width="0.3"><path d="
M 461.00 259.00 
C 461.00 254.42 461.48 249.55 461.00 245.00
C 461.00 248.64 458.23 255.26 461.00 259.00 Z"/>
</g>
<g fill="None" fill-opacity="0.0" stroke="#3C3D45" stroke-opacity="1.00" stroke-width="0.3"><path d="
M 334.00 263.00 
C 334.05 263.01 334.00 264.00 334.00 264.00
C 337.70 262.85 337.39 268.47 341.00 268.00
C 337.75 265.24 338.45 263.28 340.00 260.00
C 339.13 262.37 336.54 263.27 334.00 263.00 Z"/>
</g>
<g fill="None" fill-opacity="0.0" stroke="#40404A" stroke-opacity="1.00" stroke-width="0.3"><path d="
M 454.00 263.00 
C 454.01 263.00 454.00 264.00 454.00 264.00
C 458.01 262.59 457.55 268.39 461.00 268.00
C 457.78 264.79 458.49 263.14 461.00 260.00
C 459.02 262.11 456.92 263.04 454.00 263.00 Z"/>
</g>
<g fill="None" fill-opacity="0.0" stroke="#A6A6A7" stroke-opacity="1.00" stroke-width="0.3"><path d="
M 276.00 271.00 
C 276.00 269.00 276.00 267.00 276.00 265.00
C 273.26 265.25 269.72 265.39 267.00 265.00
C 268.46 267.28 267.92 268.69 266.00 268.00
C 263.36 267.05 260.35 265.03 258.00 264.00
C 257.50 264.00 257.00 264.00 257.00 264.00
C 254.44 265.90 252.28 264.22 250.00 264.00
C 248.21 264.00 245.72 264.45 244.00 264.00
C 243.17 263.78 240.43 261.73 240.00 261.00
C 245.91 275.34 263.69 270.06 276.00 271.00 Z"/>
</g>
<g fill="None" fill-opacity="0.0" stroke="#2A2958" stroke-opacity="1.00" stroke-width="0.3"><path d="
M 244.00 264.00 
C 245.72 264.45 248.21 264.00 250.00 264.00
C 252.33 264.00 254.67 264.00 257.00 264.00
C 257.00 264.00 257.50 264.00 258.00 264.00
C 260.33 264.00 262.67 264.00 265.00 264.00
C 265.50 264.00 266.00 264.00 266.00 264.00
C 269.29 264.00 272.73 263.70 276.00 264.00
C 272.63 260.52 264.51 264.60 260.00 263.00 C 255.49 261.40 247.63 264.77 244.00 264.00 Z"/>
</g>
<g fill="None" fill-opacity="0.0" stroke="#3A3879" stroke-opacity="1.00" stroke-width="0.3"><path d="
M 303.00 276.00 
C 303.00 274.00 303.00 272.00 303.00 270.00
C 303.00 268.79 302.48 266.06 303.00 265.00
C 303.48 264.03 303.96 264.13 305.00 264.00
C 299.81 264.66 302.54 271.26 303.00 276.00 Z"/>
</g>
<g fill="None" fill-opacity="0.0" stroke="#3B397D" stroke-opacity="1.00" stroke-width="0.3"><path d="
M 325.00 264.00 
C 327.33 264.00 329.67 264.00 332.00 264.00
C 332.50 264.00 333.84 264.23 334.00 264.00
C 334.00 264.00 334.05 263.01 334.00 263.00
C 330.82 262.71 327.46 263.76 325.00 264.00 Z"/>
</g>
<g fill="None" fill-opacity="0.0" stroke="#A6A6A6" stroke-opacity="1.00" stroke-width="0.3"><path d="
M 397.00 271.00 
C 396.95 268.68 397.61 265.61 396.00 264.00
C 394.29 265.47 390.43 265.30 388.00 265.00
C 388.56 266.02 387.57 267.91 388.00 269.00
C 385.96 268.19 385.03 265.73 383.00 265.00
C 378.54 265.40 373.70 264.48 370.00 264.00
C 367.49 263.93 365.93 263.77 364.00 263.00
C 363.50 263.00 362.42 263.19 362.00 263.00
C 370.03 275.01 384.35 270.14 397.00 271.00 Z"/>
</g>
<g fill="None" fill-opacity="0.0" stroke="#2A2856" stroke-opacity="1.00" stroke-width="0.3"><path d="
M 370.00 264.00 
C 374.33 264.12 378.67 264.00 383.00 264.00
C 384.00 264.00 385.00 264.00 386.00 264.00
C 389.33 264.00 392.67 264.00 396.00 264.00
C 392.90 260.90 384.53 263.66 380.00 263.00 C 375.47 262.34 368.73 263.00 364.00 263.00
C 365.93 263.77 367.49 263.93 370.00 264.00 Z"/>
</g>
<g fill="None" fill-opacity="0.0" stroke="#484698" stroke-opacity="1.00" stroke-width="0.3"><path d="
M 423.00 264.00 
C 423.00 263.96 424.00 264.00 424.00 264.00
C 426.33 264.00 428.67 264.00 431.00 264.00
C 428.87 263.79 425.29 261.62 423.00 264.00 Z"/>
</g>
<g fill="None" fill-opacity="0.0" stroke="#3C3A7F" stroke-opacity="1.00" stroke-width="0.3"><path d="
M 445.00 264.00 
C 447.33 264.00 449.67 264.00 452.00 264.00
C 452.50 264.00 453.84 264.23 454.00 264.00
C 454.00 264.00 454.01 263.00 454.00 263.00
C 450.82 262.71 447.47 263.76 445.00 264.00 Z"/>
</g>
<g fill="None" fill-opacity="0.0" stroke="#5E5E5E" stroke-opacity="1.00" stroke-width="0.3"><path d="
M 257.00 264.00 
C 254.67 264.00 252.33 264.00 250.00 264.00
C 252.28 264.22 254.44 265.90 257.00 264.00 Z"/>
</g>
<g fill="None" fill-opacity="0.0" stroke="#737373" stroke-opacity="1.00" stroke-width="0.3"><path d="
M 266.00 268.00 
C 264.88 266.98 263.73 265.29 265.00 264.00
C 262.67 264.00 260.33 264.00 258.00 264.00
C 260.35 265.03 263.36 267.05 266.00 268.00 Z"/>
</g>
<g fill="None" fill-opacity="0.0" stroke="#454545" stroke-opacity="1.00" stroke-width="0.3"><path d="
M 266.00 268.00 
C 267.92 268.69 268.46 267.28 267.00 265.00
C 266.65 264.95 266.26 264.12 266.00 264.00
C 266.00 264.00 265.50 264.00 265.00 264.00
C 263.73 265.29 264.88 266.98 266.00 268.00 Z"/>
</g>
<g fill="None" fill-opacity="0.0" stroke="#6C6C6C" stroke-opacity="1.00" stroke-width="0.3"><path d="
M 267.00 265.00 
C 269.72 265.39 273.26 265.25 276.00 265.00
C 276.00 265.00 276.25 264.26 276.00 264.00
C 272.73 263.70 269.29 264.00 266.00 264.00
C 266.26 264.12 266.65 264.95 267.00 265.00 Z"/>
</g>
<g fill="None" fill-opacity="0.0" stroke="#3E3E3E" stroke-opacity="1.00" stroke-width="0.3"><path d="
M 303.00 265.00 
C 305.46 267.24 314.51 264.08 318.00 265.00 C 321.49 265.92 329.07 265.25 332.00 264.00
C 329.67 264.00 327.33 264.00 325.00 264.00
C 318.50 264.00 311.44 263.21 305.00 264.00
C 303.96 264.13 303.48 264.03 303.00 265.00 Z"/>
</g>
<g fill="None" fill-opacity="0.0" stroke="#6B6B6B" stroke-opacity="1.00" stroke-width="0.3"><path d="
M 383.00 265.00 
C 382.77 264.84 383.00 264.00 383.00 264.00
C 378.67 264.00 374.33 264.12 370.00 264.00
C 373.70 264.48 378.54 265.40 383.00 265.00 Z"/>
</g>
<g fill="None" fill-opacity="0.0" stroke="#4C4C4C" stroke-opacity="1.00" stroke-width="0.3"><path d="
M 383.00 265.00 
C 385.03 265.73 385.96 268.19 388.00 269.00
C 387.57 267.91 388.56 266.02 388.00 265.00
C 386.83 264.86 386.69 264.19 386.00 264.00
C 385.00 264.00 384.00 264.00 383.00 264.00
C 383.00 264.00 382.77 264.84 383.00 265.00 Z"/>
</g>
<g fill="None" fill-opacity="0.0" stroke="#6E6E6E" stroke-opacity="1.00" stroke-width="0.3"><path d="
M 388.00 265.00 
C 390.43 265.30 394.29 265.47 396.00 264.00
C 392.67 264.00 389.33 264.00 386.00 264.00
C 386.69 264.19 386.83 264.86 388.00 265.00 Z"/>
</g>
<g fill="None" fill-opacity="0.0" stroke="#2D2D3D" stroke-opacity="1.00" stroke-width="0.3"><path d="
M 423.00 291.00 
C 423.00 291.50 423.00 292.50 423.00 293.00
C 424.83 284.65 423.99 274.17 424.00 265.00
C 424.00 264.50 424.00 264.00 424.00 264.00
C 424.00 264.00 423.00 263.96 423.00 264.00
C 422.20 272.83 423.00 282.12 423.00 291.00 Z"/>
</g>
<g fill="None" fill-opacity="0.0" stroke="#3E3E3E" stroke-opacity="1.00" stroke-width="0.3"><path d="
M 424.00 265.00 
C 431.70 265.70 445.33 266.84 452.00 264.00
C 449.67 264.00 447.33 264.00 445.00 264.00
C 440.33 264.00 435.67 264.00 431.00 264.00
C 428.67 264.00 426.33 264.00 424.00 264.00
C 424.00 264.00 424.00 264.50 424.00 265.00 Z"/>
</g>
<g fill="None" fill-opacity="0.0" stroke="#6A66DB" stroke-opacity="1.00" stroke-width="0.3"><path d="
M 202.00 265.00 
C 184.38 273.09 172.52 288.67 161.00 303.00
C 179.61 318.52 197.76 335.74 218.00 348.00
C 227.32 337.65 236.82 327.51 246.00 317.00
C 231.95 299.92 217.36 281.88 202.00 265.00
M 171.00 306.00 
C 173.46 307.20 175.44 309.95 177.00 312.00
C 173.97 311.59 171.74 308.26 170.00 306.00
C 168.12 305.32 166.68 303.98 165.00 303.00
C 168.52 298.68 172.70 294.44 177.00 291.00
C 175.47 296.05 170.65 300.23 171.00 306.00
M 201.00 328.00 
C 206.16 331.83 212.89 335.73 216.00 341.00
C 212.24 339.31 209.41 336.23 206.00 334.00
C 201.99 330.83 197.20 327.12 195.00 323.00
C 196.90 324.87 199.70 325.73 201.00 328.00 Z"/>
</g>
<g fill="None" fill-opacity="0.0" stroke="#5E5E5E" stroke-opacity="1.00" stroke-width="0.3"><path d="
M 303.00 276.00 
C 303.00 279.67 303.00 283.33 303.00 287.00
C 303.00 287.50 302.97 288.50 303.00 289.00
C 303.72 283.04 303.64 276.02 303.00 270.00
C 303.00 272.00 303.00 274.00 303.00 276.00 Z"/>
</g>
<g fill="None" fill-opacity="0.0" stroke="#AAA9C7" stroke-opacity="1.00" stroke-width="0.3"><path d="
M 397.00 287.00 
C 397.00 284.67 397.00 282.33 397.00 280.00
C 396.79 282.13 396.79 284.81 397.00 287.00 Z"/>
</g>
<g fill="None" fill-opacity="0.0" stroke="#33325E" stroke-opacity="1.00" stroke-width="0.3"><path d="
M 302.00 296.00 
C 301.90 294.84 303.13 291.09 303.00 289.00
C 302.97 288.50 303.00 287.50 303.00 287.00
C 302.88 288.24 302.68 294.51 302.00 296.00 Z"/>
</g>
<g fill="None" fill-opacity="0.0" stroke="#EEEDFA" stroke-opacity="1.00" stroke-width="0.3"><path d="
M 170.00 306.00 
C 170.44 306.16 171.00 306.00 171.00 306.00
C 170.65 300.23 175.47 296.05 177.00 291.00
C 172.70 294.44 168.52 298.68 165.00 303.00
C 166.68 303.98 168.12 305.32 170.00 306.00 Z"/>
</g>
<g fill="None" fill-opacity="0.0" stroke="#2B2955" stroke-opacity="1.00" stroke-width="0.3"><path d="
M 399.00 297.00 
C 400.55 300.40 406.83 299.00 410.00 299.00
C 412.29 299.00 414.72 299.23 417.00 299.00
C 418.57 298.84 419.68 298.97 421.00 298.00
C 420.95 298.04 423.10 295.72 423.00 296.00
C 422.95 295.01 423.00 293.99 423.00 293.00
C 423.00 292.50 423.00 291.50 423.00 291.00
C 421.64 300.53 406.81 299.77 399.00 297.00 Z"/>
</g>
<g fill="None" fill-opacity="0.0" stroke="#C9C9F2" stroke-opacity="1.00" stroke-width="0.3"><path d="
M 139.00 297.00 
C 135.21 301.44 130.75 305.61 127.00 310.00
C 133.14 304.55 140.14 297.89 145.00 292.00
C 142.23 292.67 140.74 294.96 139.00 297.00 Z"/>
</g>
<g fill="None" fill-opacity="0.0" stroke="#4D4D50" stroke-opacity="1.00" stroke-width="0.3"><path d="
M 300.00 298.00 
C 302.58 298.91 302.58 303.37 306.00 303.00
C 304.48 300.70 302.24 298.91 302.00 296.00
C 302.01 295.98 300.15 297.85 300.00 298.00 Z"/>
</g>
<g fill="None" fill-opacity="0.0" stroke="#4F4F4F" stroke-opacity="1.00" stroke-width="0.3"><path d="
M 421.00 298.00 
C 422.63 299.42 423.63 302.03 426.00 303.00
C 425.36 300.13 423.15 299.14 423.00 296.00
C 423.10 295.72 420.95 298.04 421.00 298.00 Z"/>
</g>
<g fill="None" fill-opacity="0.0" stroke="#9B99E7" stroke-opacity="1.00" stroke-width="0.3"><path d="
M 127.00 310.00 
C 130.75 305.61 135.21 301.44 139.00 297.00
C 130.83 304.31 122.56 312.30 116.00 321.00
C 120.53 319.05 123.65 313.92 127.00 310.00 Z"/>
</g>
<g fill="None" fill-opacity="0.0" stroke="#232243" stroke-opacity="1.00" stroke-width="0.3"><path d="
M 278.00 298.00 
C 282.57 300.40 292.79 299.64 298.00 299.00
C 292.31 298.44 283.94 298.62 278.00 297.00
C 278.00 297.00 277.80 297.60 278.00 298.00 Z"/>
</g>
<g fill="None" fill-opacity="0.0" stroke="#9695B1" stroke-opacity="1.00" stroke-width="0.3"><path d="
M 417.00 299.00 
C 414.72 299.23 412.29 299.00 410.00 299.00
C 412.43 299.23 414.37 299.62 417.00 299.00 Z"/>
</g>
<g fill="None" fill-opacity="0.0" stroke="#9D9DE8" stroke-opacity="1.00" stroke-width="0.3"><path d="
M 171.00 306.00 
C 171.00 306.00 170.44 306.16 170.00 306.00
C 171.74 308.26 173.97 311.59 177.00 312.00
C 175.44 309.95 173.46 307.20 171.00 306.00 Z"/>
</g>
<g fill="None" fill-opacity="0.0" stroke="#B7B6EE" stroke-opacity="1.00" stroke-width="0.3"><path d="
M 206.00 334.00 
C 204.19 332.33 202.67 329.73 201.00 328.00
C 199.70 325.73 196.90 324.87 195.00 323.00
C 197.20 327.12 201.99 330.83 206.00 334.00 Z"/>
</g>
<g fill="None" fill-opacity="0.0" stroke="#E5E5F9" stroke-opacity="1.00" stroke-width="0.3"><path d="
M 206.00 334.00 
C 209.41 336.23 212.24 339.31 216.00 341.00
C 212.89 335.73 206.16 331.83 201.00 328.00
C 202.67 329.73 204.19 332.33 206.00 334.00 Z"/>
</g>
<g fill="#FEFEFE" fill-opacity="1.00" stroke="None">
<path d="
M 0.00 500.00 
L 500.00 500.00
L 500.00 0.00
L 0.00 0.00
L 0.00 500.00
M 243.00 150.00 
C 242.68 156.71 243.39 165.63 242.00 174.00 C 240.62 182.37 240.66 193.28 238.02 201.02 C 235.38 208.77 235.83 218.54 230.75 224.75 C 225.66 230.95 218.45 233.74 212.77 238.77 C 207.09 243.80 201.33 247.73 195.75 252.75 C 190.18 257.78 184.21 261.58 178.77 266.77 C 173.33 271.96 167.24 276.72 161.77 281.77 C 156.30 286.82 151.24 291.82 145.75 296.75 C 140.26 301.69 135.10 306.55 129.75 311.75 C 124.41 316.95 119.37 321.49 114.25 327.25 C 109.13 333.00 103.08 336.68 98.25 343.25 C 93.42 349.82 85.50 352.78 80.30 345.70 C 75.11 338.61 68.13 337.61 63.30 331.70 C 58.48 325.78 47.90 322.62 51.00 316.00
C 48.79 313.67 46.12 316.53 44.00 315.00
C 51.36 300.25 66.98 289.43 78.25 276.25 C 89.52 263.06 101.15 250.75 112.75 237.75 C 124.35 224.75 133.58 210.72 146.25 198.25 C 158.91 185.78 164.75 166.24 182.67 161.67 C 200.59 157.11 224.22 149.78 243.00 150.00
M 47.00 153.00 
C 54.05 152.69 64.61 159.13 72.22 159.78 C 79.83 160.43 92.82 161.46 99.22 164.78 C 105.62 168.09 111.46 175.12 116.25 179.75 C 121.04 184.38 131.36 190.42 129.07 197.07 C 126.79 203.72 119.72 209.15 115.70 215.70 C 111.67 222.25 105.73 225.87 101.23 233.23 C 96.73 240.59 89.22 243.36 82.92 237.08 C 76.62 230.80 72.50 227.43 65.75 222.25 C 59.00 217.07 55.89 209.54 54.07 201.93 C 52.26 194.31 48.77 182.51 48.07 175.93 C 47.38 169.35 38.81 153.36 47.00 153.00
M 301.00 205.00 
C 301.80 205.67 302.33 206.33 303.00 207.00
C 310.89 214.96 307.33 226.39 309.00 237.00
C 314.93 236.66 321.06 236.88 327.00 237.00
C 329.68 237.05 331.96 237.52 334.00 238.00
C 335.66 238.17 336.52 238.25 338.00 239.00
C 345.88 242.97 345.09 247.99 346.00 256.00 C 346.91 264.01 344.84 272.34 335.00 271.00 C 325.16 269.66 318.54 272.01 309.00 271.00
C 306.40 279.45 313.87 298.96 305.75 304.75 C 297.63 310.54 282.68 305.20 278.00 298.00
C 277.80 297.60 278.00 297.00 278.00 297.00
C 273.82 290.36 276.00 278.77 276.00 271.00
C 263.69 270.06 245.91 275.34 240.00 261.00
C 238.31 256.89 236.26 242.24 241.25 239.25 C 246.24 236.26 259.69 238.00 266.00 238.00
C 268.61 237.75 272.68 236.11 276.00 237.00
C 278.54 233.37 274.87 221.20 276.00 217.00 C 277.13 212.80 275.61 203.06 282.03 203.03 C 288.44 203.00 296.44 201.21 301.00 205.00
M 421.00 204.00 
C 433.17 209.63 427.73 226.64 429.00 237.00
C 434.90 236.66 441.09 236.77 447.00 237.00
C 452.60 237.21 455.79 237.93 460.00 241.00
C 467.07 246.15 465.14 250.12 466.00 259.00 C 466.86 267.88 463.04 272.01 454.00 271.00 C 444.96 269.99 437.87 271.76 429.00 271.00
C 426.21 279.31 434.06 299.76 425.92 304.92 C 417.77 310.07 401.41 305.70 398.00 297.00
C 396.08 294.63 397.00 289.90 397.00 287.00
C 396.79 284.81 396.79 282.13 397.00 280.00
C 397.00 277.00 397.06 274.00 397.00 271.00
C 384.35 270.14 370.03 275.01 362.00 263.00
C 360.68 261.03 360.62 260.21 360.00 258.00
C 358.73 253.49 358.52 247.45 360.00 243.00
C 362.77 234.69 378.01 238.00 386.00 238.00
C 388.61 237.75 392.68 236.11 396.00 237.00
C 396.66 228.83 394.67 219.34 397.00 212.00
C 397.25 207.43 399.23 201.17 405.00 203.00 C 410.77 204.83 416.56 200.03 421.00 204.00
M 202.00 265.00 
C 217.36 281.88 231.95 299.92 246.00 317.00
C 236.82 327.51 227.32 337.65 218.00 348.00
C 197.76 335.74 179.61 318.52 161.00 303.00
C 172.52 288.67 184.38 273.09 202.00 265.00 Z"/>
</g>
<g fill="#6A66DB" fill-opacity="1.00" stroke="None">
<path d="
M 243.00 150.00 
C 224.22 149.78 200.59 157.11 182.67 161.67 C 164.75 166.24 158.91 185.78 146.25 198.25 C 133.58 210.72 124.35 224.75 112.75 237.75 C 101.15 250.75 89.52 263.06 78.25 276.25 C 66.98 289.43 51.36 300.25 44.00 315.00
C 46.12 316.53 48.79 313.67 51.00 316.00
C 47.90 322.62 58.48 325.78 63.30 331.70 C 68.13 337.61 75.11 338.61 80.30 345.70 C 85.50 352.78 93.42 349.82 98.25 343.25 C 103.08 336.68 109.13 333.00 114.25 327.25 C 119.37 321.49 124.41 316.95 129.75 311.75 C 135.10 306.55 140.26 301.69 145.75 296.75 C 151.24 291.82 156.30 286.82 161.77 281.77 C 167.24 276.72 173.33 271.96 178.77 266.77 C 184.21 261.58 190.18 257.78 195.75 252.75 C 201.33 247.73 207.09 243.80 212.77 238.77 C 218.45 233.74 225.66 230.95 230.75 224.75 C 235.83 218.54 235.38 208.77 238.02 201.02 C 240.66 193.28 240.62 182.37 242.00 174.00 C 243.39 165.63 242.68 156.71 243.00 150.00
M 170.00 179.00 
C 167.57 183.95 163.61 188.89 160.00 193.00
C 161.75 187.68 165.62 182.60 170.00 179.00
M 195.00 185.00 
C 210.00 183.37 216.86 208.63 200.32 211.32 C 183.78 214.02 183.23 192.10 195.00 185.00
M 160.00 193.00 
C 130.48 236.08 93.13 276.31 53.00 311.00
C 89.45 272.42 128.16 234.32 160.00 193.00
M 155.00 194.00 
C 135.33 219.21 114.42 245.34 91.00 267.00
C 113.11 243.29 133.96 217.18 155.00 194.00
M 207.00 240.00 
C 205.56 242.95 201.87 246.09 199.00 247.00
C 201.21 244.04 204.02 241.10 207.00 239.00
C 212.95 233.91 216.08 229.40 222.75 224.75 C 229.43 220.10 229.49 209.92 234.00 205.00
C 235.46 222.64 219.19 231.20 207.00 240.00
M 127.00 310.00 
C 123.65 313.92 120.53 319.05 116.00 321.00
C 122.56 312.30 130.83 304.31 139.00 297.00
C 140.74 294.96 142.23 292.67 145.00 292.00
C 140.14 297.89 133.14 304.55 127.00 310.00 Z"/>
</g>
<g fill="#6A66DB" fill-opacity="1.00" stroke="None">
<path d="
M 47.00 153.00 
C 38.81 153.36 47.38 169.35 48.07 175.93 C 48.77 182.51 52.26 194.31 54.07 201.93 C 55.89 209.54 59.00 217.07 65.75 222.25 C 72.50 227.43 76.62 230.80 82.92 237.08 C 89.22 243.36 96.73 240.59 101.23 233.23 C 105.73 225.87 111.67 222.25 115.70 215.70 C 119.72 209.15 126.79 203.72 129.07 197.07 C 131.36 190.42 121.04 184.38 116.25 179.75 C 111.46 175.12 105.62 168.09 99.22 164.78 C 92.82 161.46 79.83 160.43 72.22 159.78 C 64.61 159.13 54.05 152.69 47.00 153.00
M 55.00 184.00 
C 51.81 176.72 51.89 167.71 49.00 160.00
C 54.37 166.19 53.69 175.96 55.00 184.00
M 103.00 172.00 
C 99.05 170.10 95.34 167.75 91.00 167.00
C 94.81 164.27 101.57 168.20 103.00 172.00 Z"/>
</g>
<g fill="#CBCAF2" fill-opacity="1.00" stroke="None">
<path d="
M 55.00 184.00 
C 53.69 175.96 54.37 166.19 49.00 160.00
C 51.89 167.71 51.81 176.72 55.00 184.00 Z"/>
</g>
<g fill="#E0E0F8" fill-opacity="1.00" stroke="None">
<path d="
M 103.00 172.00 
C 101.57 168.20 94.81 164.27 91.00 167.00
C 95.34 167.75 99.05 170.10 103.00 172.00 Z"/>
</g>
<g fill="#9D9CE8" fill-opacity="1.00" stroke="None">
<path d="
M 170.00 179.00 
C 165.62 182.60 161.75 187.68 160.00 193.00
C 163.61 188.89 167.57 183.95 170.00 179.00 Z"/>
</g>
<g fill="#FBFBFE" fill-opacity="1.00" stroke="None">
<path d="
M 195.00 185.00 
C 183.23 192.10 183.78 214.02 200.32 211.32 C 216.86 208.63 210.00 183.37 195.00 185.00 Z"/>
</g>
<g fill="#E6E6F9" fill-opacity="1.00" stroke="None">
<path d="
M 160.00 193.00 
C 128.16 234.32 89.45 272.42 53.00 311.00
C 93.13 276.31 130.48 236.08 160.00 193.00 Z"/>
</g>
<g fill="#B8B8EF" fill-opacity="1.00" stroke="None">
<path d="
M 155.00 194.00 
C 133.96 217.18 113.11 243.29 91.00 267.00
C 114.42 245.34 135.33 219.21 155.00 194.00 Z"/>
</g>
<g fill="#6965DA" fill-opacity="1.00" stroke="None">
<path d="
M 276.00 237.00 
C 274.57 239.05 268.43 238.00 266.00 238.00
C 259.69 238.00 246.24 236.26 241.25 239.25 C 236.26 242.24 238.31 256.89 240.00 261.00
C 240.43 261.73 243.17 263.78 244.00 264.00
C 247.63 264.77 255.49 261.40 260.00 263.00 C 264.51 264.60 272.63 260.52 276.00 264.00
C 276.25 264.26 276.00 265.00 276.00 265.00
C 276.00 267.00 276.00 269.00 276.00 271.00
C 276.00 278.77 273.82 290.36 278.00 297.00
C 283.94 298.62 292.31 298.44 298.00 299.00
C 299.50 298.82 299.05 298.92 300.00 298.00
C 300.15 297.85 302.01 295.98 302.00 296.00
C 302.68 294.51 302.88 288.24 303.00 287.00
C 303.00 283.33 303.00 279.67 303.00 276.00
C 302.54 271.26 299.81 264.66 305.00 264.00
C 311.44 263.21 318.50 264.00 325.00 264.00
C 327.46 263.76 330.82 262.71 334.00 263.00
C 336.54 263.27 339.13 262.37 340.00 260.00
C 340.19 259.59 340.00 259.00 340.00 259.00
C 340.00 258.50 340.00 258.00 340.00 258.00
C 337.33 254.39 340.05 248.43 340.00 245.00
C 339.51 242.89 340.07 240.51 338.00 239.00
C 336.52 238.25 335.66 238.17 334.00 238.00
C 331.72 237.77 329.29 238.00 327.00 238.00
C 319.67 238.00 312.33 238.00 305.00 238.00
C 304.50 238.00 304.00 238.00 304.00 238.00
C 303.50 238.00 303.00 238.00 303.00 238.00
C 300.81 235.88 302.00 229.11 302.00 226.00
C 302.00 220.67 304.08 209.40 301.00 205.00
C 296.44 201.21 288.44 203.00 282.03 203.03 C 275.61 203.06 277.13 212.80 276.00 217.00 C 274.87 221.20 278.54 233.37 276.00 237.00 Z"/>
</g>
<g fill="#6965DA" fill-opacity="1.00" stroke="None">
<path d="
M 397.00 212.00 
C 396.28 225.36 402.43 238.00 386.00 238.00
C 378.01 238.00 362.77 234.69 360.00 243.00
C 359.21 247.12 359.37 253.85 360.00 258.00
C 360.62 260.21 360.68 261.03 362.00 263.00
C 362.42 263.19 363.50 263.00 364.00 263.00
C 368.73 263.00 375.47 262.34 380.00 263.00 C 384.53 263.66 392.90 260.90 396.00 264.00
C 397.61 265.61 396.95 268.68 397.00 271.00
C 397.06 274.00 397.00 277.00 397.00 280.00
C 397.00 282.33 397.00 284.67 397.00 287.00
C 397.00 289.90 396.08 294.63 398.00 297.00
C 398.20 297.24 399.00 297.00 399.00 297.00
C 406.81 299.77 421.64 300.53 423.00 291.00
C 423.00 282.12 422.20 272.83 423.00 264.00
C 425.29 261.62 428.87 263.79 431.00 264.00
C 435.67 264.00 440.33 264.00 445.00 264.00
C 447.47 263.76 450.82 262.71 454.00 263.00
C 456.92 263.04 459.02 262.11 461.00 260.00
C 461.24 259.70 461.00 259.00 461.00 259.00
C 458.23 255.26 461.00 248.64 461.00 245.00
C 460.83 243.39 460.83 242.41 460.00 241.00
C 455.79 237.93 452.60 237.21 447.00 237.00
C 440.39 237.39 432.32 238.00 425.00 238.00
C 424.50 238.00 424.00 238.00 424.00 238.00
C 421.71 235.78 423.00 228.27 423.00 225.00
C 422.49 219.78 423.20 211.62 422.00 206.00
C 421.74 205.59 421.29 204.26 421.00 204.00
C 416.56 200.03 410.77 204.83 405.00 203.00 C 399.23 201.17 397.25 207.43 397.00 212.00 Z"/>
</g>
<g fill="#A5A5A6" fill-opacity="1.00" stroke="None">
<path d="
M 422.00 206.00 
C 422.56 206.87 422.84 206.68 423.00 208.00
C 426.39 216.32 423.14 228.68 424.00 238.00
C 424.00 238.00 424.50 238.00 425.00 238.00
C 426.17 236.80 427.26 237.10 429.00 237.00
C 427.73 226.64 433.17 209.63 421.00 204.00
C 421.29 204.26 421.74 205.59 422.00 206.00 Z"/>
</g>
<g fill="#E1E1F8" fill-opacity="1.00" stroke="None">
<path d="
M 207.00 239.00 
C 206.77 239.16 207.00 240.00 207.00 240.00
C 219.19 231.20 235.46 222.64 234.00 205.00
C 229.49 209.92 229.43 220.10 222.75 224.75 C 216.08 229.40 212.95 233.91 207.00 239.00 Z"/>
</g>
<g fill="#171729" fill-opacity="1.00" stroke="None">
<path d="
M 302.00 226.00 
C 302.00 225.96 303.00 226.00 303.00 226.00
C 303.00 220.58 304.65 212.11 303.00 207.00
C 302.33 206.33 301.80 205.67 301.00 205.00
C 304.08 209.40 302.00 220.67 302.00 226.00 Z"/>
</g>
<g fill="#34336C" fill-opacity="1.00" stroke="None">
<path d="
M 423.00 225.00 
C 423.00 219.48 423.67 213.48 423.00 208.00
C 422.84 206.68 422.56 206.87 422.00 206.00
C 423.20 211.62 422.49 219.78 423.00 225.00 Z"/>
</g>
<g fill="#A5A5A5" fill-opacity="1.00" stroke="None">
<path d="
M 303.00 226.00 
C 303.00 226.50 303.00 227.00 303.00 227.00
C 305.02 229.73 303.68 234.50 304.00 238.00
C 304.00 238.00 304.50 238.00 305.00 238.00
C 306.17 236.80 307.26 237.10 309.00 237.00
C 307.33 226.39 310.89 214.96 303.00 207.00
C 304.65 212.11 303.00 220.58 303.00 226.00 Z"/>
</g>
<g fill="#2F2F32" fill-opacity="1.00" stroke="None">
<path d="
M 423.00 225.00 
C 423.00 228.27 421.71 235.78 424.00 238.00
C 423.14 228.68 426.39 216.32 423.00 208.00
C 423.67 213.48 423.00 219.48 423.00 225.00 Z"/>
</g>
<g fill="#A9A8C6" fill-opacity="1.00" stroke="None">
<path d="
M 386.00 238.00 
C 402.43 238.00 396.28 225.36 397.00 212.00
C 394.67 219.34 396.66 228.83 396.00 237.00
C 392.68 236.11 388.61 237.75 386.00 238.00 Z"/>
</g>
<g fill="#3A387A" fill-opacity="1.00" stroke="None">
<path d="
M 303.00 238.00 
C 302.67 234.40 303.00 230.62 303.00 227.00
C 303.00 227.00 303.00 226.50 303.00 226.00
C 303.00 226.00 302.00 225.96 302.00 226.00
C 302.00 229.11 300.81 235.88 303.00 238.00 Z"/>
</g>
<g fill="#565658" fill-opacity="1.00" stroke="None">
<path d="
M 303.00 238.00 
C 303.00 238.00 303.50 238.00 304.00 238.00
C 303.68 234.50 305.02 229.73 303.00 227.00
C 303.00 230.62 302.67 234.40 303.00 238.00 Z"/>
</g>
<g fill="#ABAAC7" fill-opacity="1.00" stroke="None">
<path d="
M 266.00 238.00 
C 268.43 238.00 274.57 239.05 276.00 237.00
C 272.68 236.11 268.61 237.75 266.00 238.00 Z"/>
</g>
<g fill="#7473AA" fill-opacity="1.00" stroke="None">
<path d="
M 305.00 238.00 
C 312.33 238.00 319.67 238.00 327.00 238.00
C 326.93 237.99 327.00 237.00 327.00 237.00
C 321.06 236.88 314.93 236.66 309.00 237.00
C 307.26 237.10 306.17 236.80 305.00 238.00 Z"/>
</g>
<g fill="#9A98CB" fill-opacity="1.00" stroke="None">
<path d="
M 327.00 238.00 
C 329.29 238.00 331.72 237.77 334.00 238.00
C 331.96 237.52 329.68 237.05 327.00 237.00
C 327.00 237.00 326.93 237.99 327.00 238.00 Z"/>
</g>
<g fill="#7573AA" fill-opacity="1.00" stroke="None">
<path d="
M 425.00 238.00 
C 432.32 238.00 440.39 237.39 447.00 237.00
C 441.09 236.77 434.90 236.66 429.00 237.00
C 427.26 237.10 426.17 236.80 425.00 238.00 Z"/>
</g>
<g fill="#9493E5" fill-opacity="1.00" stroke="None">
<path d="
M 207.00 240.00 
C 207.00 240.00 206.77 239.16 207.00 239.00
C 204.02 241.10 201.21 244.04 199.00 247.00
C 201.87 246.09 205.56 242.95 207.00 240.00 Z"/>
</g>
<g fill="#A4A4A4" fill-opacity="1.00" stroke="None">
<path d="
M 340.00 245.00 
C 340.81 248.50 342.46 255.67 340.00 259.00
C 340.00 259.00 340.19 259.59 340.00 260.00
C 338.45 263.28 337.75 265.24 341.00 268.00
C 337.39 268.47 337.70 262.85 334.00 264.00
C 333.84 264.23 332.50 264.00 332.00 264.00
C 329.07 265.25 321.49 265.92 318.00 265.00 C 314.51 264.08 305.46 267.24 303.00 265.00
C 302.48 266.06 303.00 268.79 303.00 270.00
C 303.64 276.02 303.72 283.04 303.00 289.00
C 303.13 291.09 301.90 294.84 302.00 296.00
C 302.24 298.91 304.48 300.70 306.00 303.00
C 302.58 303.37 302.58 298.91 300.00 298.00
C 299.05 298.92 299.50 298.82 298.00 299.00
C 292.79 299.64 282.57 300.40 278.00 298.00
C 282.68 305.20 297.63 310.54 305.75 304.75 C 313.87 298.96 306.40 279.45 309.00 271.00
C 318.54 272.01 325.16 269.66 335.00 271.00 C 344.84 272.34 346.91 264.01 346.00 256.00 C 345.09 247.99 345.88 242.97 338.00 239.00
C 340.07 240.51 339.51 242.89 340.00 245.00 Z"/>
</g>
<g fill="#A5A5A5" fill-opacity="1.00" stroke="None">
<path d="
M 461.00 245.00 
C 461.48 249.55 461.00 254.42 461.00 259.00
C 461.00 259.00 461.24 259.70 461.00 260.00
C 458.49 263.14 457.78 264.79 461.00 268.00
C 457.55 268.39 458.01 262.59 454.00 264.00
C 453.84 264.23 452.50 264.00 452.00 264.00
C 445.33 266.84 431.70 265.70 424.00 265.00
C 423.99 274.17 424.83 284.65 423.00 293.00
C 423.00 293.99 422.95 295.01 423.00 296.00
C 423.15 299.14 425.36 300.13 426.00 303.00
C 423.63 302.03 422.63 299.42 421.00 298.00
C 419.68 298.97 418.57 298.84 417.00 299.00
C 414.37 299.62 412.43 299.23 410.00 299.00
C 406.83 299.00 400.55 300.40 399.00 297.00
C 399.00 297.00 398.20 297.24 398.00 297.00
C 401.41 305.70 417.77 310.07 425.92 304.92 C 434.06 299.76 426.21 279.31 429.00 271.00
C 437.87 271.76 444.96 269.99 454.00 271.00 C 463.04 272.01 466.86 267.88 466.00 259.00 C 465.14 250.12 467.07 246.15 460.00 241.00
C 460.83 242.41 460.83 243.39 461.00 245.00 Z"/>
</g>
<g fill="#A6A5C5" fill-opacity="1.00" stroke="None">
<path d="
M 360.00 258.00 
C 359.37 253.85 359.21 247.12 360.00 243.00
C 358.52 247.45 358.73 253.49 360.00 258.00 Z"/>
</g>
<g fill="#444290" fill-opacity="1.00" stroke="None">
<path d="
M 340.00 258.00 
C 340.00 253.67 340.00 249.33 340.00 245.00
C 340.05 248.43 337.33 254.39 340.00 258.00 Z"/>
</g>
<g fill="#616162" fill-opacity="1.00" stroke="None">
<path d="
M 340.00 258.00 
C 340.00 258.00 340.00 258.50 340.00 259.00
C 342.46 255.67 340.81 248.50 340.00 245.00
C 340.00 249.33 340.00 253.67 340.00 258.00 Z"/>
</g>
<g fill="#2A293A" fill-opacity="1.00" stroke="None">
<path d="
M 461.00 259.00 
C 461.00 254.42 461.48 249.55 461.00 245.00
C 461.00 248.64 458.23 255.26 461.00 259.00 Z"/>
</g>
<g fill="#3C3D45" fill-opacity="1.00" stroke="None">
<path d="
M 334.00 263.00 
C 334.05 263.01 334.00 264.00 334.00 264.00
C 337.70 262.85 337.39 268.47 341.00 268.00
C 337.75 265.24 338.45 263.28 340.00 260.00
C 339.13 262.37 336.54 263.27 334.00 263.00 Z"/>
</g>
<g fill="#40404A" fill-opacity="1.00" stroke="None">
<path d="
M 454.00 263.00 
C 454.01 263.00 454.00 264.00 454.00 264.00
C 458.01 262.59 457.55 268.39 461.00 268.00
C 457.78 264.79 458.49 263.14 461.00 260.00
C 459.02 262.11 456.92 263.04 454.00 263.00 Z"/>
</g>
<g fill="#A6A6A7" fill-opacity="1.00" stroke="None">
<path d="
M 276.00 271.00 
C 276.00 269.00 276.00 267.00 276.00 265.00
C 273.26 265.25 269.72 265.39 267.00 265.00
C 268.46 267.28 267.92 268.69 266.00 268.00
C 263.36 267.05 260.35 265.03 258.00 264.00
C 257.50 264.00 257.00 264.00 257.00 264.00
C 254.44 265.90 252.28 264.22 250.00 264.00
C 248.21 264.00 245.72 264.45 244.00 264.00
C 243.17 263.78 240.43 261.73 240.00 261.00
C 245.91 275.34 263.69 270.06 276.00 271.00 Z"/>
</g>
<g fill="#2A2958" fill-opacity="1.00" stroke="None">
<path d="
M 244.00 264.00 
C 245.72 264.45 248.21 264.00 250.00 264.00
C 252.33 264.00 254.67 264.00 257.00 264.00
C 257.00 264.00 257.50 264.00 258.00 264.00
C 260.33 264.00 262.67 264.00 265.00 264.00
C 265.50 264.00 266.00 264.00 266.00 264.00
C 269.29 264.00 272.73 263.70 276.00 264.00
C 272.63 260.52 264.51 264.60 260.00 263.00 C 255.49 261.40 247.63 264.77 244.00 264.00 Z"/>
</g>
<g fill="#3A3879" fill-opacity="1.00" stroke="None">
<path d="
M 303.00 276.00 
C 303.00 274.00 303.00 272.00 303.00 270.00
C 303.00 268.79 302.48 266.06 303.00 265.00
C 303.48 264.03 303.96 264.13 305.00 264.00
C 299.81 264.66 302.54 271.26 303.00 276.00 Z"/>
</g>
<g fill="#3B397D" fill-opacity="1.00" stroke="None">
<path d="
M 325.00 264.00 
C 327.33 264.00 329.67 264.00 332.00 264.00
C 332.50 264.00 333.84 264.23 334.00 264.00
C 334.00 264.00 334.05 263.01 334.00 263.00
C 330.82 262.71 327.46 263.76 325.00 264.00 Z"/>
</g>
<g fill="#A6A6A6" fill-opacity="1.00" stroke="None">
<path d="
M 397.00 271.00 
C 396.95 268.68 397.61 265.61 396.00 264.00
C 394.29 265.47 390.43 265.30 388.00 265.00
C 388.56 266.02 387.57 267.91 388.00 269.00
C 385.96 268.19 385.03 265.73 383.00 265.00
C 378.54 265.40 373.70 264.48 370.00 264.00
C 367.49 263.93 365.93 263.77 364.00 263.00
C 363.50 263.00 362.42 263.19 362.00 263.00
C 370.03 275.01 384.35 270.14 397.00 271.00 Z"/>
</g>
<g fill="#2A2856" fill-opacity="1.00" stroke="None">
<path d="
M 370.00 264.00 
C 374.33 264.12 378.67 264.00 383.00 264.00
C 384.00 264.00 385.00 264.00 386.00 264.00
C 389.33 264.00 392.67 264.00 396.00 264.00
C 392.90 260.90 384.53 263.66 380.00 263.00 C 375.47 262.34 368.73 263.00 364.00 263.00
C 365.93 263.77 367.49 263.93 370.00 264.00 Z"/>
</g>
<g fill="#484698" fill-opacity="1.00" stroke="None">
<path d="
M 423.00 264.00 
C 423.00 263.96 424.00 264.00 424.00 264.00
C 426.33 264.00 428.67 264.00 431.00 264.00
C 428.87 263.79 425.29 261.62 423.00 264.00 Z"/>
</g>
<g fill="#3C3A7F" fill-opacity="1.00" stroke="None">
<path d="
M 445.00 264.00 
C 447.33 264.00 449.67 264.00 452.00 264.00
C 452.50 264.00 453.84 264.23 454.00 264.00
C 454.00 264.00 454.01 263.00 454.00 263.00
C 450.82 262.71 447.47 263.76 445.00 264.00 Z"/>
</g>
<g fill="#5E5E5E" fill-opacity="1.00" stroke="None">
<path d="
M 257.00 264.00 
C 254.67 264.00 252.33 264.00 250.00 264.00
C 252.28 264.22 254.44 265.90 257.00 264.00 Z"/>
</g>
<g fill="#737373" fill-opacity="1.00" stroke="None">
<path d="
M 266.00 268.00 
C 264.88 266.98 263.73 265.29 265.00 264.00
C 262.67 264.00 260.33 264.00 258.00 264.00
C 260.35 265.03 263.36 267.05 266.00 268.00 Z"/>
</g>
<g fill="#454545" fill-opacity="1.00" stroke="None">
<path d="
M 266.00 268.00 
C 267.92 268.69 268.46 267.28 267.00 265.00
C 266.65 264.95 266.26 264.12 266.00 264.00
C 266.00 264.00 265.50 264.00 265.00 264.00
C 263.73 265.29 264.88 266.98 266.00 268.00 Z"/>
</g>
<g fill="#6C6C6C" fill-opacity="1.00" stroke="None">
<path d="
M 267.00 265.00 
C 269.72 265.39 273.26 265.25 276.00 265.00
C 276.00 265.00 276.25 264.26 276.00 264.00
C 272.73 263.70 269.29 264.00 266.00 264.00
C 266.26 264.12 266.65 264.95 267.00 265.00 Z"/>
</g>
<g fill="#3E3E3E" fill-opacity="1.00" stroke="None">
<path d="
M 303.00 265.00 
C 305.46 267.24 314.51 264.08 318.00 265.00 C 321.49 265.92 329.07 265.25 332.00 264.00
C 329.67 264.00 327.33 264.00 325.00 264.00
C 318.50 264.00 311.44 263.21 305.00 264.00
C 303.96 264.13 303.48 264.03 303.00 265.00 Z"/>
</g>
<g fill="#6B6B6B" fill-opacity="1.00" stroke="None">
<path d="
M 383.00 265.00 
C 382.77 264.84 383.00 264.00 383.00 264.00
C 378.67 264.00 374.33 264.12 370.00 264.00
C 373.70 264.48 378.54 265.40 383.00 265.00 Z"/>
</g>
<g fill="#4C4C4C" fill-opacity="1.00" stroke="None">
<path d="
M 383.00 265.00 
C 385.03 265.73 385.96 268.19 388.00 269.00
C 387.57 267.91 388.56 266.02 388.00 265.00
C 386.83 264.86 386.69 264.19 386.00 264.00
C 385.00 264.00 384.00 264.00 383.00 264.00
C 383.00 264.00 382.77 264.84 383.00 265.00 Z"/>
</g>
<g fill="#6E6E6E" fill-opacity="1.00" stroke="None">
<path d="
M 388.00 265.00 
C 390.43 265.30 394.29 265.47 396.00 264.00
C 392.67 264.00 389.33 264.00 386.00 264.00
C 386.69 264.19 386.83 264.86 388.00 265.00 Z"/>
</g>
<g fill="#2D2D3D" fill-opacity="1.00" stroke="None">
<path d="
M 423.00 291.00 
C 423.00 291.50 423.00 292.50 423.00 293.00
C 424.83 284.65 423.99 274.17 424.00 265.00
C 424.00 264.50 424.00 264.00 424.00 264.00
C 424.00 264.00 423.00 263.96 423.00 264.00
C 422.20 272.83 423.00 282.12 423.00 291.00 Z"/>
</g>
<g fill="#3E3E3E" fill-opacity="1.00" stroke="None">
<path d="
M 424.00 265.00 
C 431.70 265.70 445.33 266.84 452.00 264.00
C 449.67 264.00 447.33 264.00 445.00 264.00
C 440.33 264.00 435.67 264.00 431.00 264.00
C 428.67 264.00 426.33 264.00 424.00 264.00
C 424.00 264.00 424.00 264.50 424.00 265.00 Z"/>
</g>
<g fill="#6A66DB" fill-opacity="1.00" stroke="None">
<path d="
M 202.00 265.00 
C 184.38 273.09 172.52 288.67 161.00 303.00
C 179.61 318.52 197.76 335.74 218.00 348.00
C 227.32 337.65 236.82 327.51 246.00 317.00
C 231.95 299.92 217.36 281.88 202.00 265.00
M 171.00 306.00 
C 173.46 307.20 175.44 309.95 177.00 312.00
C 173.97 311.59 171.74 308.26 170.00 306.00
C 168.12 305.32 166.68 303.98 165.00 303.00
C 168.52 298.68 172.70 294.44 177.00 291.00
C 175.47 296.05 170.65 300.23 171.00 306.00
M 201.00 328.00 
C 206.16 331.83 212.89 335.73 216.00 341.00
C 212.24 339.31 209.41 336.23 206.00 334.00
C 201.99 330.83 197.20 327.12 195.00 323.00
C 196.90 324.87 199.70 325.73 201.00 328.00 Z"/>
</g>
<g fill="#5E5E5E" fill-opacity="1.00" stroke="None">
<path d="
M 303.00 276.00 
C 303.00 279.67 303.00 283.33 303.00 287.00
C 303.00 287.50 302.97 288.50 303.00 289.00
C 303.72 283.04 303.64 276.02 303.00 270.00
C 303.00 272.00 303.00 274.00 303.00 276.00 Z"/>
</g>
<g fill="#AAA9C7" fill-opacity="1.00" stroke="None">
<path d="
M 397.00 287.00 
C 397.00 284.67 397.00 282.33 397.00 280.00
C 396.79 282.13 396.79 284.81 397.00 287.00 Z"/>
</g>
<g fill="#33325E" fill-opacity="1.00" stroke="None">
<path d="
M 302.00 296.00 
C 301.90 294.84 303.13 291.09 303.00 289.00
C 302.97 288.50 303.00 287.50 303.00 287.00
C 302.88 288.24 302.68 294.51 302.00 296.00 Z"/>
</g>
<g fill="#EEEDFA" fill-opacity="1.00" stroke="None">
<path d="
M 170.00 306.00 
C 170.44 306.16 171.00 306.00 171.00 306.00
C 170.65 300.23 175.47 296.05 177.00 291.00
C 172.70 294.44 168.52 298.68 165.00 303.00
C 166.68 303.98 168.12 305.32 170.00 306.00 Z"/>
</g>
<g fill="#2B2955" fill-opacity="1.00" stroke="None">
<path d="
M 399.00 297.00 
C 400.55 300.40 406.83 299.00 410.00 299.00
C 412.29 299.00 414.72 299.23 417.00 299.00
C 418.57 298.84 419.68 298.97 421.00 298.00
C 420.95 298.04 423.10 295.72 423.00 296.00
C 422.95 295.01 423.00 293.99 423.00 293.00
C 423.00 292.50 423.00 291.50 423.00 291.00
C 421.64 300.53 406.81 299.77 399.00 297.00 Z"/>
</g>
<g fill="#C9C9F2" fill-opacity="1.00" stroke="None">
<path d="
M 139.00 297.00 
C 135.21 301.44 130.75 305.61 127.00 310.00
C 133.14 304.55 140.14 297.89 145.00 292.00
C 142.23 292.67 140.74 294.96 139.00 297.00 Z"/>
</g>
<g fill="#4D4D50" fill-opacity="1.00" stroke="None">
<path d="
M 300.00 298.00 
C 302.58 298.91 302.58 303.37 306.00 303.00
C 304.48 300.70 302.24 298.91 302.00 296.00
C 302.01 295.98 300.15 297.85 300.00 298.00 Z"/>
</g>
<g fill="#4F4F4F" fill-opacity="1.00" stroke="None">
<path d="
M 421.00 298.00 
C 422.63 299.42 423.63 302.03 426.00 303.00
C 425.36 300.13 423.15 299.14 423.00 296.00
C 423.10 295.72 420.95 298.04 421.00 298.00 Z"/>
</g>
<g fill="#9B99E7" fill-opacity="1.00" stroke="None">
<path d="
M 127.00 310.00 
C 130.75 305.61 135.21 301.44 139.00 297.00
C 130.83 304.31 122.56 312.30 116.00 321.00
C 120.53 319.05 123.65 313.92 127.00 310.00 Z"/>
</g>
<g fill="#232243" fill-opacity="1.00" stroke="None">
<path d="
M 278.00 298.00 
C 282.57 300.40 292.79 299.64 298.00 299.00
C 292.31 298.44 283.94 298.62 278.00 297.00
C 278.00 297.00 277.80 297.60 278.00 298.00 Z"/>
</g>
<g fill="#9695B1" fill-opacity="1.00" stroke="None">
<path d="
M 417.00 299.00 
C 414.72 299.23 412.29 299.00 410.00 299.00
C 412.43 299.23 414.37 299.62 417.00 299.00 Z"/>
</g>
<g fill="#9D9DE8" fill-opacity="1.00" stroke="None">
<path d="
M 171.00 306.00 
C 171.00 306.00 170.44 306.16 170.00 306.00
C 171.74 308.26 173.97 311.59 177.00 312.00
C 175.44 309.95 173.46 307.20 171.00 306.00 Z"/>
</g>
<g fill="#B7B6EE" fill-opacity="1.00" stroke="None">
<path d="
M 206.00 334.00 
C 204.19 332.33 202.67 329.73 201.00 328.00
C 199.70 325.73 196.90 324.87 195.00 323.00
C 197.20 327.12 201.99 330.83 206.00 334.00 Z"/>
</g>
<g fill="#E5E5F9" fill-opacity="1.00" stroke="None">
<path d="
M 206.00 334.00 
C 209.41 336.23 212.24 339.31 216.00 341.00
C 212.89 335.73 206.16 331.83 201.00 328.00
C 202.67 329.73 204.19 332.33 206.00 334.00 Z"/>
</g>
</svg>